<svg width="144" height="35" viewBox="0 0 144 35" fill="none" xmlns="http://www.w3.org/2000/svg">
<path d="M32.128 9.664V9.52C32.128 4.48 28.096 0.447997 23.056 0.447997H9.424C4.432 0.447997 0.4 4.48 0.4 9.52V9.664C0.4 11.584 0.976 13.36 1.984 14.848C2.32 15.328 2.752 15.808 3.184 16.24C4.768 17.824 6.976 18.784 9.424 18.784H21.52C24.064 18.784 26.176 20.848 26.176 23.392C26.176 25.936 24.064 28 21.52 28H11.008C8.416 28 6.352 25.936 6.352 23.392H0.4C0.4 29.248 5.104 34 11.008 34H21.52C27.376 34 32.128 29.248 32.128 23.392C32.128 20.848 31.264 18.544 29.728 16.672C29.632 16.528 29.488 16.384 29.344 16.24C27.424 14.08 24.64 12.736 21.52 12.736H9.424C7.744 12.736 6.352 11.392 6.352 9.664V9.52C6.352 7.792 7.744 6.448 9.424 6.448H23.056C24.784 6.448 26.176 7.792 26.176 9.52V9.664H32.128ZM59.2825 18.496C60.1945 18.4 61.0585 18.16 61.8745 17.776C65.0425 16.336 67.2025 13.168 67.2025 9.52C67.2025 7.024 66.1945 4.72 64.5625 3.088C62.9305 1.456 60.6745 0.447997 58.1305 0.447997H36.9625V34.048H42.9145V18.592H48.9145C51.0745 18.592 52.9945 19.744 54.0025 21.472L54.1465 21.712L57.3625 28L60.4345 34.048H67.1545L64.1305 28L59.2825 18.496ZM42.9145 12.592V6.4H58.1305C59.1865 6.4 59.9065 6.928 60.2905 7.312C60.6265 7.648 61.2025 8.416 61.2025 9.52C61.2025 10.72 60.5305 11.824 59.3785 12.304C58.9945 12.496 58.5625 12.592 58.1305 12.592H42.9145ZM99.577 5.056L88.825 13.36L78.025 5.056L72.025 0.447997V34.048H78.025V12.64L83.881 17.152L88.825 20.944L93.721 17.152L99.577 12.64V34.048H105.625V0.447997L99.577 5.056ZM110.416 0.447997V6.448H124.192V34.048H130.192V6.448H143.968V0.447997H110.416Z" fill="#009FCE"/>
</svg>
